<svg width="25" height="19" viewBox="0 0 25 19" fill="none" xmlns="http://www.w3.org/2000/svg">
<path fill-rule="evenodd" clip-rule="evenodd" d="M2.23213 4.58923H22.7678C24.0005 4.58923 25 3.58985 25 2.3571C25 1.12436 24.0006 0.124969 22.7678 0.124969H2.23213C0.999385 0.125069 0 1.12435 0 2.3572C0 3.58995 0.999385 4.58923 2.23213 4.58923ZM22.7678 7.26783H2.23213C0.999385 7.26783 0 8.26721 0 9.49996C0 10.7328 0.999385 11.7321 2.23213 11.7321H22.7678C24.0005 11.7321 25 10.7328 25 9.49996C25 8.26721 24.0005 7.26783 22.7678 7.26783ZM22.7678 14.4107H2.23213C0.999385 14.4107 0 15.41 0 16.6428C0 17.8756 0.999385 18.8749 2.23213 18.8749H22.7678C24.0005 18.8749 25 17.8756 25 16.6428C25 15.41 24.0005 14.4107 22.7678 14.4107Z" fill="#38A3FF"/>
</svg>
